<?xml version="1.0" encoding="UTF-8" standalone="no"?>
<!-- Created with Inkscape (http://www.inkscape.org/) -->
<svg xmlns:inkscape="http://www.inkscape.org/namespaces/inkscape" xmlns:rdf="http://www.w3.org/1999/02/22-rdf-syntax-ns#" xmlns="http://www.w3.org/2000/svg" xmlns:xlink="http://www.w3.org/1999/xlink" xmlns:ns1="http://sozi.baierouge.fr" xmlns:cc="http://creativecommons.org/ns#" xmlns:sodipodi="http://sodipodi.sourceforge.net/DTD/sodipodi-0.dtd" xmlns:dc="http://purl.org/dc/elements/1.1/" id="svg2" xml:space="preserve" viewBox="0 0 159.65 41.739" version="1.1" inkscape:version="0.91 r13725">
  <defs id="defs6">
    <linearGradient id="linearGradient24" y2="80.377" gradientUnits="userSpaceOnUse" x2="25.328" gradientTransform="matrix(.01072 .79992 .79992 -.01072 -.00019274 33.4)" y1="80.377" x1="-43.778">
      <stop id="stop26" style="stop-color:#2b1736" offset="0"/>
      <stop id="stop28" style="stop-color:#2e1a37" offset=".22750"/>
      <stop id="stop32" style="stop-color:#38233b" offset=".3804"/>
      <stop id="stop34" style="stop-color:#483242" offset=".5176"/>
      <stop id="stop36" style="stop-color:#5f474c" offset=".64310"/>
      <stop id="stop38" style="stop-color:#7c6258" offset=".7608"/>
      <stop id="stop40" style="stop-color:#856b5c" offset=".79220"/>
      <stop id="stop42" style="stop-color:#9cbab5" offset="1"/>
    </linearGradient>
    <linearGradient id="linearGradient56" y2="78.798" gradientUnits="userSpaceOnUse" x2="37.58" gradientTransform="matrix(-.00336 .8 .8 .00336 -.000055729 33.4)" y1="78.798" x1="-45.246">
      <stop id="stop58" style="stop-color:#2b1736" offset="0"/>
      <stop id="stop60" style="stop-color:#2d1a38" offset=".2431"/>
      <stop id="stop64" style="stop-color:#33243c" offset=".40780"/>
      <stop id="stop66" style="stop-color:#3e3444" offset=".55290"/>
      <stop id="stop68" style="stop-color:#4d4b50" offset=".69020"/>
      <stop id="stop70" style="stop-color:#60685e" offset=".81570"/>
      <stop id="stop72" style="stop-color:#626b60" offset=".83140"/>
      <stop id="stop74" style="stop-color:#9cbab5" offset="1"/>
    </linearGradient>
    <linearGradient id="linearGradient88" y2="76.5" gradientUnits="userSpaceOnUse" x2="7.3486" gradientTransform="matrix(.000013278 .8 .8 .0008 -.000088008 33.4)" y1="76.5" x1="-52.901">
      <stop id="stop90" style="stop-color:#2b1736" offset="0"/>
      <stop id="stop92" style="stop-color:#2e1a37" offset=".22750"/>
      <stop id="stop96" style="stop-color:#38233b" offset=".3804"/>
      <stop id="stop98" style="stop-color:#483242" offset=".5176"/>
      <stop id="stop100" style="stop-color:#5f474c" offset=".64310"/>
      <stop id="stop102" style="stop-color:#7c6258" offset=".7608"/>
      <stop id="stop104" style="stop-color:#856b5c" offset=".79220"/>
      <stop id="stop106" style="stop-color:#9cbab5" offset="1"/>
    </linearGradient>
  </defs>
  <g id="g10" transform="matrix(1.25 0 0 -1.25 0 41.739)">
    <g id="g12">
      <g id="g14">
        <g id="g16">
          <g id="g22">
            <path id="path44" style="fill-rule:evenodd;fill:url(#linearGradient24)" d="m100.48 15.161c0.719 0.316 2.067 0.973 4.04 1.957 1.601 0.695 3.718 0.281 6.359-1.238 1.894-1.117 4.199-2.934 6.922-5.442 2.906-2.691 6.211-6.171 9.918-10.437h-127.72c0.48 3.199 5.453 7.238 14.922 12.117 9.68 4.961 16.519 8.684 20.519 11.16 5.305 3.254 8.481 5.149 9.52 5.684 3.867 2.023 7.652 3.398 11.359 4.117 3.946 0.773 8.188 0.106 12.719-2 3.496-1.625 7.883-4.531 13.16-8.719 3.867-3.039 7.028-5.148 9.481-6.32 1.761-0.879 3.508-1.375 5.242-1.48 1.226-0.106 2.41 0.093 3.558 0.601z" inkscape:connector-curvature="0"/>
          </g>
        </g>
      </g>
      <g id="g46">
        <g id="g48">
          <g id="g54">
            <path id="path76" style="fill-rule:evenodd;fill:url(#linearGradient56)" d="m101.64 9.04c2 0.266 3.347 0.375 4.039 0.32 1.547-0.109 3.027-0.695 4.441-1.761 2.16-1.625 4.719-4.161 7.68-7.598h-109.24c0.344 1.758 2.411 3.973 6.2 6.641 3.039 2.132 7.664 4.867 13.879 8.199 3.679 1.972 8.734 5.105 15.16 9.398 5.547 3.336 10.465 5 14.761 5 4.879 0 10.958-2.519 18.239-7.558 3.785-2.614 7.933-5.813 12.441-9.602 1.813-1.25 4.039-2.144 6.68-2.68 2.16-0.425 4.066-0.547 5.719-0.359z" inkscape:connector-curvature="0"/>
          </g>
        </g>
      </g>
      <g id="g78">
        <g id="g80">
          <g id="g86">
            <path id="path108" style="fill-rule:evenodd;fill:url(#linearGradient88)" d="m90.68 6.04c2.16-1.492 6.16-3.508 12-6.039h-82.961c0.562 0.691 1.496 1.613 2.801 2.758 2.585 2.293 5.746 4.613 9.48 6.961 9.121 5.679 15.215 9.359 18.281 11.039 2.371 1.308 5.199 1.961 8.481 1.961 4.476 0 8.863-1.36 13.16-4.078 4.078-2.563 8.012-5.149 11.797-7.762 2.054-1.414 4.375-3.028 6.961-4.84z" inkscape:connector-curvature="0"/>
          </g>
        </g>
      </g>
    </g>
  </g>
<metadata><rdf:RDF><cc:Work><dc:format>image/svg+xml</dc:format><dc:type rdf:resource="http://purl.org/dc/dcmitype/StillImage"/><cc:license rdf:resource="http://creativecommons.org/licenses/publicdomain/"/><dc:publisher><cc:Agent rdf:about="http://openclipart.org/"><dc:title>Openclipart</dc:title></cc:Agent></dc:publisher></cc:Work><cc:License rdf:about="http://creativecommons.org/licenses/publicdomain/"><cc:permits rdf:resource="http://creativecommons.org/ns#Reproduction"/><cc:permits rdf:resource="http://creativecommons.org/ns#Distribution"/><cc:permits rdf:resource="http://creativecommons.org/ns#DerivativeWorks"/></cc:License></rdf:RDF></metadata></svg>
